<?xml version="1.0" standalone="no"?>
<!DOCTYPE svg PUBLIC "-//W3C//DTD SVG 20010904//EN"
 "http://www.w3.org/TR/2001/REC-SVG-20010904/DTD/svg10.dtd">
<svg version="1.0" xmlns="http://www.w3.org/2000/svg"
 width="1672.000000pt" height="438.000000pt" viewBox="0 0 1672.000000 438.000000"
 preserveAspectRatio="xMidYMid meet">

<g transform="translate(0.000000,438.000000) scale(0.100000,-0.100000)"
fill="#000000" stroke="none">
<path d="M531 4354 c-83 -22 -150 -62 -222 -134 -103 -101 -149 -211 -149
-355 0 -139 42 -244 141 -350 150 -160 389 -200 594 -100 105 51 204 164 247
283 31 85 30 254 -2 337 -64 164 -187 277 -351 320 -68 19 -188 18 -258 -1z"/>
<path d="M1343 4296 l-28 -24 -3 -394 c-2 -300 0 -399 10 -416 27 -51 38 -52
452 -52 l384 0 31 26 31 26 0 404 0 405 -26 24 -27 25 -398 0 -398 0 -28 -24z"/>
<path d="M2449 4291 l-29 -29 0 -396 0 -395 24 -28 24 -28 407 0 407 0 24 28
24 28 0 395 0 396 -29 29 -29 29 -397 0 -397 0 -29 -29z"/>
<path d="M262 3205 c-61 -27 -63 -41 -60 -467 l3 -380 28 -24 28 -24 404 0
c403 0 404 0 425 22 19 21 20 33 20 427 -1 437 0 430 -54 451 -17 6 -164 10
-394 10 -295 -1 -373 -4 -400 -15z"/>
<path d="M1384 3213 c-12 -2 -32 -15 -45 -29 l-24 -26 -3 -394 -3 -395 30 -29
29 -30 406 0 405 0 20 26 c20 26 21 37 21 425 l0 398 -24 28 -24 28 -384 1
c-210 1 -393 0 -404 -3z"/>
<path d="M5586 2101 c-133 -44 -202 -177 -162 -312 24 -85 67 -127 206 -200
177 -92 212 -142 151 -211 -29 -32 -31 -33 -113 -32 -65 0 -100 6 -158 28 -41
15 -83 30 -92 33 -16 5 -18 -3 -18 -80 0 -59 4 -88 14 -96 24 -20 167 -51 236
-51 151 0 261 47 315 134 27 44 30 58 30 130 0 70 -4 87 -27 127 -34 58 -71
86 -210 160 -61 32 -119 66 -129 75 -26 24 -33 68 -15 102 30 58 120 66 253
21 35 -11 65 -19 67 -18 17 23 57 142 50 148 -5 5 -38 19 -74 31 -94 32 -245
37 -324 11z"/>
<path d="M10063 2105 c-195 -53 -293 -208 -293 -460 0 -82 21 -186 49 -249 63
-143 229 -226 426 -213 192 13 309 94 366 252 26 73 38 280 20 366 -34 161
-140 273 -292 308 -63 15 -215 12 -276 -4z m235 -161 c101 -42 137 -120 137
-299 0 -104 -3 -127 -23 -170 -28 -60 -47 -82 -92 -105 -118 -60 -256 -18
-314 97 -35 69 -41 220 -14 327 33 130 181 203 306 150z"/>
<path d="M265 2101 c-11 -5 -29 -19 -40 -31 -19 -21 -20 -39 -23 -379 -2 -196
0 -376 3 -400 4 -26 16 -53 30 -67 l24 -24 405 0 405 0 20 26 c20 26 21 37 21
429 0 382 -1 404 -19 426 l-19 24 -394 2 c-216 1 -402 -2 -413 -6z"/>
<path d="M1364 2096 c-54 -24 -55 -36 -52 -460 l3 -388 28 -24 28 -24 400 0
400 0 24 26 25 27 0 399 0 400 -29 29 -29 29 -384 0 c-297 -1 -390 -4 -414
-14z"/>
<path d="M2474 2100 c-54 -21 -54 -24 -54 -443 0 -397 2 -415 39 -444 12 -9
117 -12 414 -13 l399 0 29 29 29 29 0 386 c0 221 -4 395 -10 410 -20 54 -35
56 -447 55 -208 0 -388 -4 -399 -9z"/>
<path d="M3985 2098 c-3 -7 -4 -213 -3 -458 l3 -445 95 0 95 0 0 455 0 455
-93 3 c-68 2 -94 -1 -97 -10z"/>
<path d="M4410 1650 l0 -460 85 0 86 0 -3 340 c-2 187 0 340 3 340 3 0 21 -28
40 -62 84 -149 342 -594 351 -605 7 -9 46 -13 129 -13 l119 0 0 460 0 460 -86
0 -86 0 4 -340 c2 -271 1 -337 -9 -324 -7 10 -74 123 -149 253 -75 130 -160
274 -188 321 l-51 85 -123 3 -122 3 0 -461z"/>
<path d="M6080 2030 l0 -79 123 -3 122 -3 3 -378 2 -378 98 3 97 3 3 378 2
377 120 0 120 0 0 80 0 80 -345 0 -345 0 0 -80z"/>
<path d="M6915 2098 c-3 -7 -4 -213 -3 -458 l3 -445 98 -3 97 -3 0 461 0 460
-95 0 c-67 0 -97 -4 -100 -12z"/>
<path d="M7250 2030 l0 -80 125 0 125 0 0 -380 0 -380 95 0 95 0 2 378 3 377
123 3 122 3 0 79 0 80 -345 0 -345 0 0 -80z"/>
<path d="M8084 2096 c-3 -8 -4 -162 -2 -343 l3 -328 33 -68 c38 -76 89 -121
176 -153 78 -29 260 -26 340 5 75 30 138 88 173 160 l28 56 3 343 3 343 -98
-3 -98 -3 -5 -325 c-5 -304 -6 -327 -25 -360 -31 -52 -78 -75 -155 -75 -73 0
-118 20 -154 68 -20 27 -21 43 -26 360 l-5 332 -93 3 c-73 2 -93 0 -98 -12z"/>
<path d="M8974 2096 c-3 -7 -4 -42 -2 -77 l3 -64 122 -3 123 -3 2 -377 3 -377
98 -3 97 -3 0 381 0 380 125 0 125 0 0 80 0 80 -345 0 c-282 0 -347 -3 -351
-14z"/>
<path d="M11175 2098 c-3 -7 -4 -213 -3 -458 l3 -445 95 0 95 0 3 177 2 177
153 3 152 3 3 78 3 77 -156 0 -155 0 0 120 0 120 165 0 165 0 0 80 0 80 -260
0 c-199 0 -262 -3 -265 -12z"/>
<path d="M11885 2098 c-3 -7 -4 -213 -3 -458 l3 -445 263 -3 262 -2 0 80 0 80
-165 0 -165 0 0 120 0 120 155 0 155 0 0 80 0 80 -155 0 -155 0 0 100 0 100
165 0 165 0 0 80 0 80 -260 0 c-199 0 -262 -3 -265 -12z"/>
<path d="M12605 2099 c-3 -8 -4 -214 -3 -459 l3 -445 190 1 c265 1 365 31 460
136 82 92 121 219 111 363 -14 201 -119 340 -298 392 -75 22 -455 31 -463 12z
m396 -165 c109 -32 159 -120 159 -280 0 -202 -84 -294 -273 -297 l-82 -2 -3
298 -2 297 73 0 c40 0 98 -7 128 -16z"/>
<path d="M13560 1650 l0 -460 260 0 260 0 0 80 0 80 -165 0 -165 0 0 120 0
120 155 0 155 0 0 80 0 80 -155 0 -155 0 0 100 0 100 165 0 165 0 0 80 0 80
-260 0 -260 0 0 -460z"/>
<path d="M14280 1650 l0 -460 95 0 95 0 0 175 0 175 54 0 54 0 98 -157 c53
-87 104 -166 112 -175 13 -15 32 -18 114 -18 55 0 98 4 98 9 0 6 -56 93 -125
195 -69 102 -125 189 -125 194 0 5 10 13 23 19 141 64 186 287 81 403 -68 75
-171 99 -421 100 l-153 0 0 -460z m379 275 c81 -41 73 -171 -11 -206 -17 -7
-63 -13 -102 -13 l-71 -1 -3 124 -3 124 79 -5 c44 -3 93 -13 111 -23z"/>
<path d="M15331 2088 c-4 -13 -56 -160 -115 -328 -59 -168 -127 -360 -151
-428 -25 -68 -45 -128 -45 -133 0 -6 42 -9 103 -7 l102 3 34 108 35 107 166 0
167 0 33 -110 33 -110 104 0 c56 0 103 3 103 6 0 8 -282 809 -317 902 -4 9
-38 12 -124 12 -115 0 -120 -1 -128 -22z m191 -321 c31 -100 54 -185 51 -189
-2 -5 -53 -8 -114 -8 -80 0 -109 3 -109 13 -1 18 104 367 110 367 3 0 30 -82
62 -183z"/>
<path d="M16025 2098 c-3 -7 -4 -213 -3 -458 l3 -445 280 0 280 0 3 78 3 77
-185 0 -186 0 -2 378 -3 377 -93 3 c-68 2 -94 -1 -97 -10z"/>
<path d="M249 985 c-15 -8 -32 -29 -38 -46 -15 -42 -15 -729 0 -781 18 -68 19
-68 459 -68 l391 0 24 25 25 24 0 410 0 410 -26 20 c-26 20 -37 21 -418 21
-320 -1 -396 -3 -417 -15z"/>
<path d="M1361 986 c-49 -27 -50 -35 -51 -439 0 -403 2 -421 49 -447 13 -6
163 -10 414 -10 l394 0 27 26 26 27 0 401 c-1 422 0 420 -47 444 -33 18 -780
16 -812 -2z"/>
<path d="M6287 766 c-26 -40 -47 -76 -47 -80 0 -3 12 -6 27 -6 22 0 44 17 95
71 38 39 68 75 68 80 0 5 -22 9 -48 9 l-49 0 -46 -74z"/>
<path d="M4163 781 c-126 -43 -195 -142 -209 -301 -13 -136 29 -267 107 -334
65 -55 121 -69 253 -64 137 6 146 10 146 55 0 33 -2 35 -27 29 -16 -4 -64 -9
-109 -13 -130 -9 -196 22 -249 118 -28 51 -30 61 -30 164 0 104 2 113 30 164
34 61 88 106 149 122 48 13 141 6 191 -15 l36 -15 16 34 c9 19 14 37 11 41 -3
3 -30 12 -59 20 -75 19 -192 17 -256 -5z"/>
<path d="M4705 601 c-51 -23 -78 -53 -107 -116 -32 -71 -32 -209 1 -278 27
-56 77 -99 130 -116 50 -14 186 -13 231 3 31 11 35 17 38 51 3 33 1 37 -15 30
-47 -19 -83 -26 -144 -26 -75 -2 -117 15 -148 60 -21 29 -43 115 -33 126 3 3
86 5 185 5 l180 0 -5 70 c-10 134 -87 210 -212 210 -38 0 -76 -7 -101 -19z
m150 -55 c41 -18 75 -69 75 -113 l0 -33 -135 0 c-133 0 -135 0 -135 23 0 37
43 101 80 119 43 22 70 22 115 4z"/>
<path d="M5235 601 c-43 -15 -50 -21 -47 -42 4 -36 15 -41 54 -25 60 25 131
30 166 12 39 -20 51 -41 54 -97 l3 -44 -92 -6 c-112 -8 -181 -30 -218 -69 -24
-26 -30 -40 -33 -93 -6 -107 47 -157 167 -157 68 0 116 16 145 49 26 29 34 27
44 -11 6 -26 14 -34 35 -36 l27 -3 0 216 c0 251 -5 271 -74 305 -54 26 -161
27 -231 1z m220 -319 c0 -54 -4 -64 -29 -91 -36 -38 -86 -55 -138 -48 -95 13
-116 111 -37 170 18 13 52 22 105 27 44 4 84 6 89 5 6 -1 10 -29 10 -63z"/>
<path d="M5875 604 c-16 -9 -45 -32 -62 -52 l-33 -37 0 48 0 47 -35 0 -35 0 2
-262 3 -263 37 -3 36 -3 4 178 c3 167 4 180 27 217 33 53 75 76 139 76 l52 0
0 35 0 35 -52 0 c-29 -1 -66 -8 -83 -16z"/>
<path d="M6195 603 c-45 -16 -50 -21 -48 -47 1 -16 4 -30 6 -33 3 -2 32 5 66
17 69 23 95 25 140 9 38 -13 61 -54 61 -107 l0 -39 -92 -6 c-123 -8 -165 -22
-210 -67 -35 -35 -38 -42 -38 -96 0 -114 53 -158 180 -152 70 3 82 6 118 36
23 17 43 32 45 32 3 0 8 -16 11 -36 6 -31 10 -35 34 -32 l27 3 3 210 c2 232
-3 256 -61 299 -39 29 -171 33 -242 9z m223 -303 c5 -88 -47 -147 -139 -157
-49 -5 -58 -3 -87 22 -25 21 -32 35 -32 62 0 71 41 101 154 113 102 11 101 11
104 -40z"/>
</g>
</svg>
