<svg version="1.1" id="Layer_1" xmlns="http://www.w3.org/2000/svg" xmlns:xlink="http://www.w3.org/1999/xlink" x="0px" y="0px"
	 width="100%" viewBox="0 0 1755 1241" enable-background="new 0 0 1755 1241" xml:space="preserve">
<path fill="#FFFFFF" opacity="1.000000" stroke="none" 
	d="
M1090.000000,1242.000000 
	C726.666748,1242.000000 363.833466,1242.000000 1.000146,1242.000000 
	C1.000097,828.333496 1.000097,414.666931 1.000049,1.000313 
	C585.999756,1.000208 1170.999512,1.000208 1755.999512,1.000104 
	C1755.999634,414.666351 1755.999634,828.332703 1755.999756,1241.999512 
	C1534.166626,1242.000000 1312.333374,1242.000000 1090.000000,1242.000000 
M1572.873047,715.235596 
	C1580.351685,715.235596 1587.830322,715.235596 1595.673340,715.235596 
	C1597.576782,709.040466 1599.666504,702.761414 1601.390503,696.383484 
	C1602.127563,693.656494 1603.291504,692.709717 1606.171509,692.772705 
	C1615.331421,692.972961 1624.500854,692.969360 1633.661011,692.777039 
	C1636.509399,692.717224 1637.745117,693.587158 1638.493164,696.347717 
	C1640.223267,702.733337 1642.324585,709.018311 1644.244629,715.244690 
	C1651.655151,715.244690 1658.735718,715.244690 1666.496460,715.244690 
	C1655.071899,682.911743 1643.816528,651.057495 1632.542114,619.149292 
	C1623.963257,619.149292 1615.660889,619.149292 1607.247925,619.149292 
	C1605.130249,625.174438 1603.041870,631.127808 1600.945801,637.078430 
	C1592.283569,661.668335 1583.643066,686.265930 1574.885376,710.821777 
	C1574.432007,712.093079 1572.967407,713.003723 1571.825195,713.402649 
	C1562.930542,700.248108 1554.035767,687.093567 1545.079834,673.848511 
	C1546.200684,673.242981 1546.637207,673.008606 1547.072510,672.771667 
	C1558.982544,666.286011 1564.368408,656.110168 1562.514771,643.595825 
	C1560.588867,630.592529 1553.824219,622.874695 1539.628418,621.098145 
	C1525.357910,619.312256 1510.838501,619.517395 1496.261475,618.842346 
	C1496.261475,651.677612 1496.261475,683.411194 1496.261475,715.106567 
	C1503.243286,715.106567 1509.948975,715.106567 1517.116943,715.106567 
	C1517.116943,702.767456 1517.116943,690.854187 1517.116943,679.338013 
	C1524.584106,677.237610 1528.832153,679.934082 1532.223511,686.326233 
	C1536.967163,695.267151 1542.722534,703.678162 1548.201538,712.215515 
	C1549.080078,713.584412 1550.751465,715.333801 1552.093018,715.365723 
	C1558.710449,715.523071 1565.340210,715.161499 1572.873047,715.235596 
M106.326553,502.998169 
	C82.336258,502.998260 58.345917,502.970947 34.355701,503.014252 
	C26.611187,503.028229 23.030827,506.590515 23.015944,514.329346 
	C22.968525,538.985901 22.973536,563.642700 23.011972,588.299316 
	C23.024597,596.398682 26.513685,599.827942 34.614765,599.834106 
	C59.104828,599.852783 83.594917,599.848022 108.084984,599.835083 
	C116.532700,599.830627 119.831551,596.517517 119.836121,588.030640 
	C119.849121,563.873779 119.842667,539.716858 119.839798,515.559998 
	C119.838676,506.082275 116.850433,503.101410 106.326553,502.998169 
M213.494217,599.838928 
	C216.824570,599.838867 220.154922,599.843018 223.485275,599.838013 
	C232.384277,599.824585 235.532730,596.733704 235.540298,587.859741 
	C235.561020,563.548340 235.557922,539.236938 235.540924,514.925537 
	C235.534943,506.381531 232.254745,503.017120 223.860046,503.008301 
	C199.382156,502.982483 174.904190,502.978882 150.426315,503.010559 
	C142.281082,503.021088 138.880692,506.346649 138.860413,514.527100 
	C138.799316,539.171326 138.800278,563.816040 138.861420,588.460266 
	C138.881607,596.596191 142.290955,599.824951 150.552246,599.832397 
	C171.200272,599.851074 191.848328,599.838745 213.494217,599.838928 
M43.508942,618.999268 
	C40.345318,618.999207 37.181606,618.984314 34.018082,619.002075 
	C26.556604,619.043945 23.038031,622.451355 23.020855,630.012146 
	C22.964491,654.821472 22.966188,679.631104 23.019878,704.440430 
	C23.036339,712.046753 26.492685,715.520264 33.961288,715.531860 
	C58.937191,715.570679 83.913239,715.572327 108.889122,715.527527 
	C116.449799,715.513916 119.819672,712.076233 119.828323,704.481140 
	C119.856598,679.671692 119.860390,654.862183 119.827644,630.052734 
	C119.817375,622.271606 116.402031,619.006653 108.444305,619.002991 
	C87.131485,618.993286 65.818665,618.999390 43.508942,618.999268 
M22.999861,792.500000 
	C22.999386,801.659241 22.957932,810.818787 23.010744,819.977722 
	C23.057255,828.044128 26.520205,831.517456 34.622623,831.530884 
	C59.269348,831.571899 83.916237,831.580078 108.562943,831.536316 
	C116.379456,831.522400 119.826172,828.012756 119.832642,820.239319 
	C119.853172,795.592529 119.849747,770.945679 119.834320,746.298889 
	C119.829193,738.103455 116.570274,734.847229 108.320297,734.840271 
	C83.840057,734.819824 59.359779,734.824280 34.879532,734.842590 
	C26.380861,734.848938 23.029545,738.135864 23.009632,746.536255 
	C22.974106,761.524109 22.999779,776.512085 22.999861,792.500000 
M138.837830,649.500000 
	C138.839432,667.975525 138.787033,686.451233 138.870590,704.926392 
	C138.901764,711.820984 142.270645,715.415588 148.720505,715.432190 
	C174.353073,715.498230 199.986038,715.496155 225.618607,715.429871 
	C232.058105,715.413208 235.419159,711.989075 235.433670,705.468140 
	C235.490372,680.001953 235.490540,654.535461 235.421860,629.069336 
	C235.403854,622.390564 231.883118,619.019836 225.169769,619.011963 
	C199.869934,618.982117 174.570038,618.980957 149.270218,619.013184 
	C142.536469,619.021729 139.050903,622.326660 138.881973,629.026672 
	C138.718399,635.514038 138.840912,642.008606 138.837830,649.500000 
M235.452621,437.500122 
	C235.454620,424.501160 235.484299,411.502136 235.448135,398.503296 
	C235.426590,390.762177 232.249222,387.565521 224.538864,387.556671 
	C199.707550,387.528076 174.876160,387.529663 150.044830,387.551300 
	C142.287903,387.558075 138.895935,390.706665 138.871750,398.302673 
	C138.792160,423.300446 138.796524,448.298706 138.865906,473.296539 
	C138.886383,480.673126 142.318298,483.985687 149.605392,483.992157 
	C174.603363,484.014404 199.601395,484.010315 224.599396,483.993927 
	C232.219406,483.988922 235.418381,480.753143 235.442902,472.997375 
	C235.479248,461.498413 235.452698,449.999237 235.452621,437.500122 
M203.500015,734.837830 
	C185.520782,734.837158 167.541489,734.804993 149.562378,734.852051 
	C142.744614,734.869873 138.947296,738.162659 138.916321,744.622925 
	C138.793365,770.258911 138.803253,795.896179 138.912003,821.532349 
	C138.938217,827.713257 142.425140,831.362244 148.460129,831.391968 
	C174.262985,831.519043 200.067123,831.509705 225.870117,831.395447 
	C232.008865,831.368286 235.410538,827.804871 235.428574,821.637756 
	C235.503555,796.000916 235.501709,770.363647 235.423126,744.726807 
	C235.403534,738.335693 231.902588,734.958069 225.475449,734.862915 
	C218.485046,734.759338 211.491959,734.838318 203.500015,734.837830 
M254.547379,418.499908 
	C254.547134,436.498291 254.490005,454.496918 254.571930,472.494934 
	C254.609833,480.823730 257.893158,483.994995 266.060944,483.997437 
	C290.725403,484.004822 315.389862,484.006775 340.054321,483.996796 
	C348.093994,483.993561 351.150604,480.919739 351.156281,472.779663 
	C351.173492,448.115204 351.170105,423.450745 351.158417,398.786285 
	C351.154541,390.651550 348.126740,387.554047 340.094849,387.547363 
	C315.263733,387.526642 290.432617,387.527344 265.601532,387.552765 
	C257.975403,387.560577 254.735550,390.737762 254.577026,398.502106 
	C254.447784,404.832275 254.548401,411.167114 254.547379,418.499908 
M254.547379,697.480408 
	C254.547729,699.647034 254.510834,701.814453 254.554977,703.980225 
	C254.726105,712.374817 257.799011,715.447632 266.050018,715.451477 
	C290.882996,715.463135 315.716003,715.480164 340.548950,715.451233 
	C347.984131,715.442566 351.145264,712.244446 351.152893,704.772827 
	C351.178375,679.773193 351.182434,654.773499 351.152832,629.773865 
	C351.143768,622.122070 347.902008,619.006836 340.097321,619.003662 
	C315.931000,618.993713 291.764679,618.999817 267.598358,619.000122 
	C257.234131,619.000183 254.565613,621.626831 254.555344,631.987610 
	C254.534042,653.487305 254.547760,674.987000 254.547379,697.480408 
M124.166382,429.317383 
	C121.098312,399.724792 92.704285,378.362091 62.853970,383.188019 
	C32.774616,388.050995 12.588455,417.993561 19.554218,447.415466 
	C26.228895,475.607880 51.988304,492.703247 80.827148,488.079559 
	C107.992424,483.724182 126.816246,458.642212 124.166382,429.317383 
M481.848969,703.478455 
	C481.848969,684.015137 481.848969,664.551819 481.848969,644.969971 
	C482.605682,646.219177 483.382935,647.449524 484.109314,648.709229 
	C496.226807,669.723328 508.308258,690.758301 520.511902,711.722168 
	C521.402710,713.252441 523.123413,715.298401 524.535583,715.361145 
	C532.476562,715.713257 540.441345,715.530823 548.559509,715.530823 
	C548.559509,683.304993 548.559509,651.610657 548.559509,619.762207 
	C542.346802,619.762207 536.431580,619.762207 530.574463,619.762207 
	C530.574463,643.222412 530.574463,666.380066 530.574463,690.301697 
	C529.444275,688.386108 528.633850,687.029602 527.839661,685.663757 
	C515.728760,664.837219 503.641724,643.996765 491.463837,623.209473 
	C490.618683,621.766846 489.142151,619.700623 487.890625,619.650879 
	C479.784607,619.328674 471.659546,619.485779 463.472473,619.485779 
	C463.472473,651.739197 463.472473,683.434082 463.472473,715.222168 
	C469.714386,715.222168 475.628601,715.222168 481.848969,715.222168 
	C481.848969,711.426880 481.848969,707.946777 481.848969,703.478455 
M1090.305054,621.115967 
	C1081.708740,617.846191 1072.747070,617.434937 1063.751465,618.167603 
	C1043.149292,619.845398 1029.362793,631.836426 1026.015137,652.268799 
	C1024.533569,661.311707 1024.671387,670.803528 1025.431641,679.979065 
	C1026.209473,689.368469 1030.022949,697.996399 1036.960815,704.809143 
	C1049.156860,716.785461 1064.179443,718.324341 1080.078369,716.128174 
	C1097.772705,713.683960 1109.711548,702.834473 1114.036133,685.564880 
	C1116.873291,674.236023 1116.963013,662.799072 1114.613281,651.442688 
	C1111.755005,637.629150 1104.468750,627.030518 1090.305054,621.115967 
M1400.850830,660.818054 
	C1398.157837,639.018372 1387.417725,624.763977 1367.939941,621.520691 
	C1352.672852,618.978516 1336.890259,619.532227 1321.301025,618.708679 
	C1321.301025,651.736145 1321.301025,683.465332 1321.301025,714.897522 
	C1334.569580,714.897522 1347.616943,715.862793 1360.466187,714.678711 
	C1381.454468,712.744629 1395.462891,700.280640 1399.475220,681.105530 
	C1400.788330,674.830078 1400.471558,668.213562 1400.850830,660.818054 
M901.438110,694.926880 
	C894.008118,700.995361 885.599121,700.821411 877.400635,697.608948 
	C869.991272,694.705688 868.663940,687.585266 868.565186,680.538818 
	C868.306030,662.062378 868.286743,643.582642 868.174683,625.104187 
	C868.164001,623.345886 868.173279,621.587463 868.173279,619.727905 
	C861.087585,619.727905 854.653259,619.727905 848.173218,619.727905 
	C848.173218,642.596619 847.377075,665.252197 848.464355,687.817139 
	C849.144104,701.926514 858.287170,711.029663 871.962097,714.996277 
	C881.096497,717.645813 890.396362,717.694153 899.630127,715.666016 
	C915.487976,712.182861 926.077637,701.408691 926.641418,685.881470 
	C927.437744,663.948486 926.843140,641.965027 926.843140,619.753784 
	C920.128662,619.753784 913.561218,619.753784 906.476929,619.753784 
	C906.476929,621.810852 906.476807,623.597229 906.476868,625.383606 
	C906.477600,642.037659 906.556519,658.692322 906.440369,675.345581 
	C906.394104,681.980347 906.427063,688.734436 901.438110,694.926880 
M1274.516479,674.015503 
	C1282.590088,674.015503 1290.663818,674.015503 1298.504150,674.015503 
	C1298.504150,667.946533 1298.504150,662.696716 1298.504150,656.987671 
	C1287.576660,656.987671 1276.995483,656.987671 1266.508301,656.987671 
	C1266.508301,649.913025 1266.508301,643.317688 1266.508301,636.185791 
	C1278.192871,636.185791 1289.583374,636.185791 1300.949463,636.185791 
	C1300.949463,630.371399 1300.949463,625.104492 1300.949463,619.716064 
	C1282.458862,619.716064 1264.218384,619.716064 1245.759521,619.716064 
	C1245.759521,651.692749 1245.759521,683.401733 1245.759521,715.305969 
	C1264.305298,715.305969 1282.539917,715.305969 1300.937378,715.305969 
	C1300.937378,709.636475 1300.937378,704.219299 1300.937378,698.265442 
	C1289.266235,698.265442 1277.848877,698.265442 1266.381104,698.265442 
	C1266.381104,689.934204 1266.381104,682.143250 1266.381104,674.015625 
	C1268.880005,674.015625 1271.196899,674.015625 1274.516479,674.015503 
M1441.176392,682.559265 
	C1441.176392,679.790039 1441.176392,677.020752 1441.176392,673.824890 
	C1452.385620,673.824890 1462.965576,673.824890 1473.572144,673.824890 
	C1473.572144,668.125916 1473.572144,662.877136 1473.572144,657.125610 
	C1462.741455,657.125610 1452.170898,657.125610 1441.540527,657.125610 
	C1441.540527,649.900940 1441.540527,643.189880 1441.540527,635.949341 
	C1453.286621,635.949341 1464.678223,635.949341 1475.995605,635.949341 
	C1475.995605,630.268311 1475.995605,625.128967 1475.995605,619.784851 
	C1457.586792,619.784851 1439.361328,619.784851 1421.198486,619.784851 
	C1421.198486,651.810364 1421.198486,683.518860 1421.198486,715.242859 
	C1439.666748,715.242859 1457.756714,715.242859 1475.811035,715.242859 
	C1475.811035,709.553528 1475.811035,704.166443 1475.811035,698.352661 
	C1464.184814,698.352661 1452.918091,698.352661 1441.176514,698.352661 
	C1441.176514,693.136108 1441.176514,688.339966 1441.176392,682.559265 
M573.865173,628.400879 
	C564.431030,641.257751 566.619324,657.877869 579.440918,667.310791 
	C584.081970,670.725098 589.544128,673.015320 594.594727,675.883423 
	C598.486816,678.093628 602.875183,679.836060 605.990356,682.867981 
	C608.139893,684.960022 609.865295,689.202026 609.262085,691.925476 
	C608.660156,694.643188 605.295044,697.724670 602.462402,698.726196 
	C598.895081,699.987427 594.473938,700.082947 590.713989,699.291138 
	C582.814453,697.627625 575.106079,695.056580 567.153931,692.811401 
	C567.153931,697.551941 567.388916,702.542114 567.069336,707.496521 
	C566.864563,710.671326 568.296936,711.943054 570.937317,712.890259 
	C582.649780,717.092163 594.654907,718.345703 606.808716,715.724426 
	C618.114502,713.286011 626.678040,707.330139 629.475647,695.251404 
	C632.049988,684.136292 628.431580,673.471863 618.882874,667.230957 
	C611.542297,662.433411 603.452393,658.793762 595.782654,654.484497 
	C589.460266,650.932312 587.496338,647.174744 588.927551,642.129211 
	C590.262390,637.423340 594.554810,635.012939 601.370178,635.194641 
	C602.528198,635.225464 603.715637,635.296875 604.831421,635.579102 
	C610.881226,637.109375 616.912720,638.711609 623.263916,640.370911 
	C625.337769,635.304749 627.441406,630.165833 630.168640,623.503540 
	C620.355774,621.541016 611.556396,619.015381 602.600403,618.189209 
	C592.052429,617.216309 582.020874,619.590149 573.865173,628.400879 
M1176.729004,715.548279 
	C1181.678589,715.548279 1186.628296,715.548279 1191.994385,715.548279 
	C1191.994385,702.651978 1191.994385,690.405396 1191.994385,677.853577 
	C1202.872437,677.853577 1213.317383,677.853577 1223.835449,677.853577 
	C1223.835449,671.980713 1223.835449,666.432312 1223.835449,660.573853 
	C1213.054077,660.573853 1202.631226,660.573853 1192.118042,660.573853 
	C1192.118042,652.315430 1192.118042,644.381226 1192.118042,636.008667 
	C1203.797241,636.008667 1215.216064,636.008667 1226.519531,636.008667 
	C1226.519531,630.322266 1226.519531,625.083008 1226.519531,619.773315 
	C1207.942505,619.773315 1189.702026,619.773315 1171.305176,619.773315 
	C1171.305176,651.695557 1171.305176,683.297302 1171.305176,715.272400 
	C1172.886108,715.369141 1174.340698,715.458130 1176.729004,715.548279 
M799.500183,619.442078 
	C786.728455,619.442078 773.956787,619.442078 761.075012,619.442078 
	C761.075012,625.408630 761.075012,630.827942 761.075012,636.790039 
	C769.758362,636.790039 778.174866,636.790039 786.932495,636.790039 
	C786.932495,663.283142 786.932495,689.230835 786.932495,715.285767 
	C793.882568,715.285767 800.461426,715.285767 807.661255,715.285767 
	C807.661255,688.973694 807.661255,662.932312 807.661255,636.452026 
	C816.536560,636.452026 824.797424,636.452026 833.228027,636.452026 
	C833.228027,630.614929 833.228027,625.229492 833.228027,619.442200 
	C822.102173,619.442200 811.301208,619.442200 799.500183,619.442078 
M1013.771606,620.041504 
	C1012.156555,619.845032 1010.541870,619.480530 1008.926453,619.477600 
	C988.120972,619.439453 967.315369,619.452759 946.509827,619.453125 
	C944.883728,619.453186 943.257629,619.453186 941.440247,619.453186 
	C941.440247,625.351318 941.440247,630.723572 941.440247,636.660889 
	C950.103760,636.660889 958.480225,636.660889 967.184448,636.660889 
	C967.184448,663.135864 967.184448,689.046326 967.184448,715.252808 
	C974.262817,715.252808 980.995300,715.252808 988.139526,715.252808 
	C988.139526,688.922668 988.139526,662.847473 988.139526,636.335449 
	C996.963318,636.335449 1005.379700,636.335449 1013.992554,636.335449 
	C1013.992554,630.909790 1013.992554,625.925049 1013.771606,620.041504 
M699.470215,619.455383 
	C679.179199,619.455383 658.888123,619.455383 638.471130,619.455383 
	C638.471130,625.381165 638.471130,630.757019 638.471130,636.516113 
	C647.065369,636.516113 655.339355,636.516113 664.152710,636.516113 
	C664.152710,662.955322 664.152710,689.014282 664.152710,715.168701 
	C671.407654,715.168701 678.112000,715.168701 685.134521,715.168701 
	C685.134521,688.832947 685.134521,662.877075 685.134521,636.462952 
	C693.877563,636.462952 702.303711,636.462952 710.698853,636.462952 
	C710.698853,630.592468 710.698853,625.190674 710.698853,619.455505 
	C707.078491,619.455505 703.768127,619.455505 699.470215,619.455383 
M1699.190796,643.500610 
	C1699.190796,635.556885 1699.190796,627.613098 1699.190796,619.695923 
	C1692.124023,619.695923 1685.683105,619.695923 1679.059937,619.695923 
	C1679.059937,651.675659 1679.059937,683.419495 1679.059937,715.190796 
	C1698.849365,715.190796 1718.385864,715.190796 1737.826904,715.190796 
	C1737.826904,709.433716 1737.826904,704.036560 1737.826904,698.257568 
	C1724.850464,698.257568 1712.235962,698.257568 1699.190674,698.257568 
	C1699.190674,680.073486 1699.190674,662.287109 1699.190796,643.500610 
M418.448822,655.499817 
	C418.448822,675.412170 418.448822,695.324585 418.448822,715.233215 
	C425.758636,715.233215 432.321167,715.233215 438.900452,715.233215 
	C438.900452,683.172729 438.900452,651.436646 438.900452,619.781616 
	C432.010620,619.781616 425.424713,619.781616 418.448914,619.781616 
	C418.448914,631.573120 418.448914,643.036438 418.448822,655.499817 
M746.198486,695.499756 
	C746.198486,670.232788 746.198486,644.965759 746.198486,619.779602 
	C739.013489,619.779602 732.427673,619.779602 725.817383,619.779602 
	C725.817383,651.817383 725.817383,683.522949 725.817383,715.235596 
	C732.753845,715.235596 739.316650,715.235596 746.198303,715.235596 
	C746.198303,708.779358 746.198303,702.639343 746.198486,695.499756 
M480.150604,804.459290 
	C480.431732,806.936707 480.601013,809.432983 481.013550,811.888306 
	C482.707642,821.971252 489.791168,830.191833 499.590363,831.580566 
	C505.852844,832.468018 512.517395,832.025940 518.789368,830.946350 
	C526.135376,829.681946 526.035339,829.100769 524.665833,822.059387 
	C518.982849,823.030518 513.339050,824.608276 507.640472,824.840149 
	C496.068787,825.310852 488.307281,816.409424 490.215698,805.051514 
	C502.525726,805.051514 514.921692,805.051514 527.349243,805.051514 
	C527.939575,797.152466 527.548950,789.924805 523.045715,783.565063 
	C517.333557,775.497986 509.122406,773.700989 500.057190,775.137329 
	C490.779602,776.607239 485.004913,782.612915 482.233063,791.300720 
	C480.987213,795.205566 480.811401,799.451843 480.150604,804.459290 
M582.194519,823.335938 
	C582.190918,812.510925 582.290161,801.684570 582.148682,790.861389 
	C582.049500,783.274841 578.662781,778.106934 572.327332,776.230835 
	C562.465088,773.310303 553.037781,774.876709 543.699097,779.659912 
	C544.679016,782.049500 545.523804,784.109619 546.294556,785.989075 
	C550.120300,784.798279 553.384521,783.544312 556.759277,782.774536 
	C569.103333,779.959167 574.881042,785.115845 573.555969,798.147034 
	C570.644043,798.147034 567.667664,798.034607 564.703674,798.178467 
	C561.719543,798.323425 558.734436,798.625122 555.773071,799.029236 
	C545.989929,800.364380 539.480774,805.114319 537.963806,811.916565 
	C535.201660,824.302551 543.177002,833.075317 556.499146,832.575928 
	C563.453186,832.315247 569.213501,829.729614 573.978516,823.666443 
	C574.854858,826.973938 575.435974,829.167114 576.016296,831.357300 
	C578.151672,831.357300 579.949646,831.357300 582.194580,831.357300 
	C582.194580,828.877930 582.194580,826.578857 582.194519,823.335938 
M638.404053,821.942688 
	C640.017517,826.923096 643.417664,830.321960 648.379089,831.545593 
	C658.098694,833.942810 667.054260,832.566650 674.183228,823.956543 
	C675.019958,827.027344 675.613647,829.206299 676.148193,831.167969 
	C678.424805,831.167969 680.328735,831.167969 682.216248,831.167969 
	C682.216248,817.018921 682.602051,803.229492 682.075317,789.475037 
	C681.746033,780.878052 676.762085,776.264648 668.243347,775.156372 
	C659.815552,774.059998 651.754944,775.421082 643.877197,779.647644 
	C644.766846,781.868652 645.599365,783.946899 646.409973,785.970642 
	C650.544189,784.699585 654.263855,783.228394 658.122742,782.431152 
	C669.603882,780.059082 675.556091,786.128662 673.431152,797.537537 
	C666.779419,798.181274 660.079346,798.276611 653.619812,799.571655 
	C640.788574,802.144348 636.757141,808.176941 638.404053,821.942688 
M433.748810,818.817932 
	C423.390442,808.083801 423.211670,795.202209 426.697144,781.996948 
	C429.772003,770.347412 439.727875,763.432800 451.816986,764.182434 
	C457.183533,764.515259 462.467377,766.181396 468.315002,767.347229 
	C469.230927,765.412720 470.383392,762.978455 471.529419,760.557922 
	C454.078979,752.035217 432.640839,755.868225 422.765442,768.929871 
	C412.176392,782.935425 412.740448,809.182861 423.911713,822.260193 
	C432.841980,832.714478 455.929169,836.192932 468.584961,829.054688 
	C468.584961,826.729248 468.584961,824.457764 468.584961,822.149170 
	C446.867859,825.573669 442.669281,825.210144 433.748810,818.817932 
M624.708618,774.795532 
	C617.245667,774.530762 612.632080,779.310120 607.616821,785.226135 
	C607.234863,781.562195 606.952209,778.850830 606.665649,776.102051 
	C604.204407,776.102051 601.953735,776.102051 599.442017,776.102051 
	C599.442017,785.531555 599.441956,794.657349 599.441956,803.783142 
	C599.441956,812.878540 599.442017,821.973938 599.442017,831.274780 
	C602.568726,831.274780 605.133728,831.274780 608.018677,831.274780 
	C608.018677,822.375977 608.009460,813.754150 608.020691,805.132324 
	C608.042114,788.692871 613.755798,782.947327 629.966003,783.031433 
	C630.108826,783.032166 630.252441,782.875549 630.698059,782.616760 
	C630.972900,780.424866 631.274109,778.022827 631.629272,775.190430 
	C629.389038,775.045715 627.447449,774.920288 624.708618,774.795532 
M669.081787,760.584961 
	C671.236877,757.990662 673.392029,755.396362 675.547180,752.802063 
	C675.330383,752.396790 675.113586,751.991455 674.896790,751.586182 
	C671.394897,751.895691 666.467163,750.871765 664.678894,752.783813 
	C660.568604,757.178833 657.986816,763.003296 654.686218,768.408691 
	C662.272949,770.550842 664.677368,764.437439 669.081787,760.584961 
z"/>
<path fill="#389A37" opacity="1.000000" stroke="none" 
	d="
M106.797394,502.997986 
	C116.850433,503.101410 119.838676,506.082275 119.839798,515.559998 
	C119.842667,539.716858 119.849121,563.873779 119.836121,588.030640 
	C119.831551,596.517517 116.532700,599.830627 108.084984,599.835083 
	C83.594917,599.848022 59.104828,599.852783 34.614765,599.834106 
	C26.513685,599.827942 23.024597,596.398682 23.011972,588.299316 
	C22.973536,563.642700 22.968525,538.985901 23.015944,514.329346 
	C23.030827,506.590515 26.611187,503.028229 34.355701,503.014252 
	C58.345917,502.970947 82.336258,502.998260 106.797394,502.997986 
z"/>
<path fill="#389937" opacity="1.000000" stroke="none" 
	d="
M212.995300,599.838867 
	C191.848328,599.838745 171.200272,599.851074 150.552246,599.832397 
	C142.290955,599.824951 138.881607,596.596191 138.861420,588.460266 
	C138.800278,563.816040 138.799316,539.171326 138.860413,514.527100 
	C138.880692,506.346649 142.281082,503.021088 150.426315,503.010559 
	C174.904190,502.978882 199.382156,502.982483 223.860046,503.008301 
	C232.254745,503.017120 235.534943,506.381531 235.540924,514.925537 
	C235.557922,539.236938 235.561020,563.548340 235.540298,587.859741 
	C235.532730,596.733704 232.384277,599.824585 223.485275,599.838013 
	C220.154922,599.843018 216.824570,599.838867 212.995300,599.838867 
z"/>
<path fill="#389937" opacity="1.000000" stroke="none" 
	d="
M44.007393,618.999268 
	C65.818665,618.999390 87.131485,618.993286 108.444305,619.002991 
	C116.402031,619.006653 119.817375,622.271606 119.827644,630.052734 
	C119.860390,654.862183 119.856598,679.671692 119.828323,704.481140 
	C119.819672,712.076233 116.449799,715.513916 108.889122,715.527527 
	C83.913239,715.572327 58.937191,715.570679 33.961288,715.531860 
	C26.492685,715.520264 23.036339,712.046753 23.019878,704.440430 
	C22.966188,679.631104 22.964491,654.821472 23.020855,630.012146 
	C23.038031,622.451355 26.556604,619.043945 34.018082,619.002075 
	C37.181606,618.984314 40.345318,618.999207 44.007393,618.999268 
z"/>
<path fill="#389937" opacity="1.000000" stroke="none" 
	d="
M22.999861,792.000000 
	C22.999779,776.512085 22.974106,761.524109 23.009632,746.536255 
	C23.029545,738.135864 26.380861,734.848938 34.879532,734.842590 
	C59.359779,734.824280 83.840057,734.819824 108.320297,734.840271 
	C116.570274,734.847229 119.829193,738.103455 119.834320,746.298889 
	C119.849747,770.945679 119.853172,795.592529 119.832642,820.239319 
	C119.826172,828.012756 116.379456,831.522400 108.562943,831.536316 
	C83.916237,831.580078 59.269348,831.571899 34.622623,831.530884 
	C26.520205,831.517456 23.057255,828.044128 23.010744,819.977722 
	C22.957932,810.818787 22.999386,801.659241 22.999861,792.000000 
z"/>
<path fill="#379936" opacity="1.000000" stroke="none" 
	d="
M138.837799,649.000000 
	C138.840912,642.008606 138.718399,635.514038 138.881973,629.026672 
	C139.050903,622.326660 142.536469,619.021729 149.270218,619.013184 
	C174.570038,618.980957 199.869934,618.982117 225.169769,619.011963 
	C231.883118,619.019836 235.403854,622.390564 235.421860,629.069336 
	C235.490540,654.535461 235.490372,680.001953 235.433670,705.468140 
	C235.419159,711.989075 232.058105,715.413208 225.618607,715.429871 
	C199.986038,715.496155 174.353073,715.498230 148.720505,715.432190 
	C142.270645,715.415588 138.901764,711.820984 138.870590,704.926392 
	C138.787033,686.451233 138.839432,667.975525 138.837799,649.000000 
z"/>
<path fill="#379936" opacity="1.000000" stroke="none" 
	d="
M235.452759,438.000122 
	C235.452698,449.999237 235.479248,461.498413 235.442902,472.997375 
	C235.418381,480.753143 232.219406,483.988922 224.599396,483.993927 
	C199.601395,484.010315 174.603363,484.014404 149.605392,483.992157 
	C142.318298,483.985687 138.886383,480.673126 138.865906,473.296539 
	C138.796524,448.298706 138.792160,423.300446 138.871750,398.302673 
	C138.895935,390.706665 142.287903,387.558075 150.044830,387.551300 
	C174.876160,387.529663 199.707550,387.528076 224.538864,387.556671 
	C232.249222,387.565521 235.426590,390.762177 235.448135,398.503296 
	C235.484299,411.502136 235.454620,424.501160 235.452759,438.000122 
z"/>
<path fill="#379936" opacity="1.000000" stroke="none" 
	d="
M204.000031,734.837769 
	C211.491959,734.838318 218.485046,734.759338 225.475449,734.862915 
	C231.902588,734.958069 235.403534,738.335693 235.423126,744.726807 
	C235.501709,770.363647 235.503555,796.000916 235.428574,821.637756 
	C235.410538,827.804871 232.008865,831.368286 225.870117,831.395447 
	C200.067123,831.509705 174.262985,831.519043 148.460129,831.391968 
	C142.425140,831.362244 138.938217,827.713257 138.912003,821.532349 
	C138.803253,795.896179 138.793365,770.258911 138.916321,744.622925 
	C138.947296,738.162659 142.744614,734.869873 149.562378,734.852051 
	C167.541489,734.804993 185.520782,734.837158 204.000031,734.837769 
z"/>
<path fill="#379936" opacity="1.000000" stroke="none" 
	d="
M254.547241,417.999878 
	C254.548401,411.167114 254.447784,404.832275 254.577026,398.502106 
	C254.735550,390.737762 257.975403,387.560577 265.601532,387.552765 
	C290.432617,387.527344 315.263733,387.526642 340.094849,387.547363 
	C348.126740,387.554047 351.154541,390.651550 351.158417,398.786285 
	C351.170105,423.450745 351.173492,448.115204 351.156281,472.779663 
	C351.150604,480.919739 348.093994,483.993561 340.054321,483.996796 
	C315.389862,484.006775 290.725403,484.004822 266.060944,483.997437 
	C257.893158,483.994995 254.609833,480.823730 254.571930,472.494934 
	C254.490005,454.496918 254.547134,436.498291 254.547241,417.999878 
z"/>
<path fill="#379936" opacity="1.000000" stroke="none" 
	d="
M254.547241,696.983521 
	C254.547760,674.987000 254.534042,653.487305 254.555344,631.987610 
	C254.565613,621.626831 257.234131,619.000183 267.598358,619.000122 
	C291.764679,618.999817 315.931000,618.993713 340.097321,619.003662 
	C347.902008,619.006836 351.143768,622.122070 351.152832,629.773865 
	C351.182434,654.773499 351.178375,679.773193 351.152893,704.772827 
	C351.145264,712.244446 347.984131,715.442566 340.548950,715.451233 
	C315.716003,715.480164 290.882996,715.463135 266.050018,715.451477 
	C257.799011,715.447632 254.726105,712.374817 254.554977,703.980225 
	C254.510834,701.814453 254.547729,699.647034 254.547241,696.983521 
z"/>
<path fill="#C91619" opacity="1.000000" stroke="none" 
	d="
M124.217300,429.756714 
	C126.816246,458.642212 107.992424,483.724182 80.827148,488.079559 
	C51.988304,492.703247 26.228895,475.607880 19.554218,447.415466 
	C12.588455,417.993561 32.774616,388.050995 62.853970,383.188019 
	C92.704285,378.362091 121.098312,399.724792 124.217300,429.756714 
z"/>
<path fill="#2E2B27" opacity="1.000000" stroke="none" 
	d="
M481.848969,703.972534 
	C481.848969,707.946777 481.848969,711.426880 481.848969,715.222168 
	C475.628601,715.222168 469.714386,715.222168 463.472473,715.222168 
	C463.472473,683.434082 463.472473,651.739197 463.472473,619.485779 
	C471.659546,619.485779 479.784607,619.328674 487.890625,619.650879 
	C489.142151,619.700623 490.618683,621.766846 491.463837,623.209473 
	C503.641724,643.996765 515.728760,664.837219 527.839661,685.663757 
	C528.633850,687.029602 529.444275,688.386108 530.574463,690.301697 
	C530.574463,666.380066 530.574463,643.222412 530.574463,619.762207 
	C536.431580,619.762207 542.346802,619.762207 548.559509,619.762207 
	C548.559509,651.610657 548.559509,683.304993 548.559509,715.530823 
	C540.441345,715.530823 532.476562,715.713257 524.535583,715.361145 
	C523.123413,715.298401 521.402710,713.252441 520.511902,711.722168 
	C508.308258,690.758301 496.226807,669.723328 484.109314,648.709229 
	C483.382935,647.449524 482.605682,646.219177 481.848969,644.969971 
	C481.848969,664.551819 481.848969,684.015137 481.848969,703.972534 
z"/>
<path fill="#2D2925" opacity="1.000000" stroke="none" 
	d="
M1090.664062,621.258911 
	C1104.468750,627.030518 1111.755005,637.629150 1114.613281,651.442688 
	C1116.963013,662.799072 1116.873291,674.236023 1114.036133,685.564880 
	C1109.711548,702.834473 1097.772705,713.683960 1080.078369,716.128174 
	C1064.179443,718.324341 1049.156860,716.785461 1036.960815,704.809143 
	C1030.022949,697.996399 1026.209473,689.368469 1025.431641,679.979065 
	C1024.671387,670.803528 1024.533569,661.311707 1026.015137,652.268799 
	C1029.362793,631.836426 1043.149292,619.845398 1063.751465,618.167603 
	C1072.747070,617.434937 1081.708740,617.846191 1090.664062,621.258911 
M1093.777100,677.872803 
	C1093.474609,669.442383 1094.067139,660.858154 1092.650391,652.619385 
	C1090.746826,641.549438 1082.513916,635.444824 1071.505005,635.022339 
	C1060.111206,634.585144 1051.513306,640.233154 1048.292725,650.824524 
	C1044.971436,661.746643 1044.965088,672.867249 1048.241577,683.788574 
	C1051.333618,694.095215 1058.669434,699.272827 1069.402954,699.477661 
	C1083.017456,699.737488 1090.172485,693.606628 1093.777100,677.872803 
z"/>
<path fill="#2D2A25" opacity="1.000000" stroke="none" 
	d="
M1400.875488,661.285522 
	C1400.471558,668.213562 1400.788330,674.830078 1399.475220,681.105530 
	C1395.462891,700.280640 1381.454468,712.744629 1360.466187,714.678711 
	C1347.616943,715.862793 1334.569580,714.897522 1321.301025,714.897522 
	C1321.301025,683.465332 1321.301025,651.736145 1321.301025,618.708679 
	C1336.890259,619.532227 1352.672852,618.978516 1367.939941,621.520691 
	C1387.417725,624.763977 1398.157837,639.018372 1400.875488,661.285522 
M1379.022705,675.047363 
	C1379.006470,669.568848 1379.520508,664.025024 1378.856079,658.626282 
	C1377.714966,649.354919 1373.656738,641.236572 1364.151367,638.458374 
	C1357.169922,636.417969 1349.601929,636.384888 1342.105225,635.433167 
	C1342.105225,657.235718 1342.105225,677.667419 1342.105225,698.067017 
	C1363.833618,700.552429 1374.722412,693.952148 1379.022705,675.047363 
z"/>
<path fill="#2D2A25" opacity="1.000000" stroke="none" 
	d="
M1571.965698,714.982971 
	C1565.340210,715.161499 1558.710449,715.523071 1552.093018,715.365723 
	C1550.751465,715.333801 1549.080078,713.584412 1548.201538,712.215515 
	C1542.722534,703.678162 1536.967163,695.267151 1532.223511,686.326233 
	C1528.832153,679.934082 1524.584106,677.237610 1517.116943,679.338013 
	C1517.116943,690.854187 1517.116943,702.767456 1517.116943,715.106567 
	C1509.948975,715.106567 1503.243286,715.106567 1496.261475,715.106567 
	C1496.261475,683.411194 1496.261475,651.677612 1496.261475,618.842346 
	C1510.838501,619.517395 1525.357910,619.312256 1539.628418,621.098145 
	C1553.824219,622.874695 1560.588867,630.592529 1562.514771,643.595825 
	C1564.368408,656.110168 1558.982544,666.286011 1547.072510,672.771667 
	C1546.637207,673.008606 1546.200684,673.242981 1545.079834,673.848511 
	C1554.035767,687.093567 1562.930542,700.248108 1571.902466,713.892700 
	C1571.984619,714.583008 1571.979858,714.783081 1571.965698,714.982971 
M1541.171631,653.356995 
	C1543.355957,644.638550 1540.583740,639.090454 1532.504395,637.387695 
	C1527.562012,636.346069 1522.402710,636.333923 1517.174805,635.843872 
	C1517.174805,645.059631 1517.174805,653.430725 1517.174805,661.870117 
	C1520.831787,661.870117 1524.183838,662.185730 1527.453125,661.799438 
	C1532.951172,661.149902 1538.470825,660.184021 1541.171631,653.356995 
z"/>
<path fill="#2E2A26" opacity="1.000000" stroke="none" 
	d="
M1572.419434,715.109253 
	C1571.979858,714.783081 1571.984619,714.583008 1571.976685,714.232544 
	C1572.967407,713.003723 1574.432007,712.093079 1574.885376,710.821777 
	C1583.643066,686.265930 1592.283569,661.668335 1600.945801,637.078430 
	C1603.041870,631.127808 1605.130249,625.174438 1607.247925,619.149292 
	C1615.660889,619.149292 1623.963257,619.149292 1632.542114,619.149292 
	C1643.816528,651.057495 1655.071899,682.911743 1666.496460,715.244690 
	C1658.735718,715.244690 1651.655151,715.244690 1644.244629,715.244690 
	C1642.324585,709.018311 1640.223267,702.733337 1638.493164,696.347717 
	C1637.745117,693.587158 1636.509399,692.717224 1633.661011,692.777039 
	C1624.500854,692.969360 1615.331421,692.972961 1606.171509,692.772705 
	C1603.291504,692.709717 1602.127563,693.656494 1601.390503,696.383484 
	C1599.666504,702.761414 1597.576782,709.040466 1595.673340,715.235596 
	C1587.830322,715.235596 1580.351685,715.235596 1572.419434,715.109253 
M1628.027832,661.448914 
	C1625.463867,653.192505 1622.899780,644.936035 1619.927002,635.363586 
	C1615.632812,649.629822 1611.796265,662.375854 1607.982788,675.044800 
	C1616.341553,675.044800 1624.173218,675.044800 1632.293213,675.044800 
	C1630.825928,670.429749 1629.522217,666.329346 1628.027832,661.448914 
z"/>
<path fill="#2B2823" opacity="1.000000" stroke="none" 
	d="
M901.682739,694.642212 
	C906.427063,688.734436 906.394104,681.980347 906.440369,675.345581 
	C906.556519,658.692322 906.477600,642.037659 906.476868,625.383606 
	C906.476807,623.597229 906.476929,621.810852 906.476929,619.753784 
	C913.561218,619.753784 920.128662,619.753784 926.843140,619.753784 
	C926.843140,641.965027 927.437744,663.948486 926.641418,685.881470 
	C926.077637,701.408691 915.487976,712.182861 899.630127,715.666016 
	C890.396362,717.694153 881.096497,717.645813 871.962097,714.996277 
	C858.287170,711.029663 849.144104,701.926514 848.464355,687.817139 
	C847.377075,665.252197 848.173218,642.596619 848.173218,619.727905 
	C854.653259,619.727905 861.087585,619.727905 868.173279,619.727905 
	C868.173279,621.587463 868.164001,623.345886 868.174683,625.104187 
	C868.286743,643.582642 868.306030,662.062378 868.565186,680.538818 
	C868.663940,687.585266 869.991272,694.705688 877.400635,697.608948 
	C885.599121,700.821411 894.008118,700.995361 901.682739,694.642212 
z"/>
<path fill="#312E29" opacity="1.000000" stroke="none" 
	d="
M1274.015137,674.015564 
	C1271.196899,674.015625 1268.880005,674.015625 1266.381104,674.015625 
	C1266.381104,682.143250 1266.381104,689.934204 1266.381104,698.265442 
	C1277.848877,698.265442 1289.266235,698.265442 1300.937378,698.265442 
	C1300.937378,704.219299 1300.937378,709.636475 1300.937378,715.305969 
	C1282.539917,715.305969 1264.305298,715.305969 1245.759521,715.305969 
	C1245.759521,683.401733 1245.759521,651.692749 1245.759521,619.716064 
	C1264.218384,619.716064 1282.458862,619.716064 1300.949463,619.716064 
	C1300.949463,625.104492 1300.949463,630.371399 1300.949463,636.185791 
	C1289.583374,636.185791 1278.192871,636.185791 1266.508301,636.185791 
	C1266.508301,643.317688 1266.508301,649.913025 1266.508301,656.987671 
	C1276.995483,656.987671 1287.576660,656.987671 1298.504150,656.987671 
	C1298.504150,662.696716 1298.504150,667.946533 1298.504150,674.015503 
	C1290.663818,674.015503 1282.590088,674.015503 1274.015137,674.015564 
z"/>
<path fill="#2D2925" opacity="1.000000" stroke="none" 
	d="
M1441.176514,683.051514 
	C1441.176514,688.339966 1441.176514,693.136108 1441.176514,698.352661 
	C1452.918091,698.352661 1464.184814,698.352661 1475.811035,698.352661 
	C1475.811035,704.166443 1475.811035,709.553528 1475.811035,715.242859 
	C1457.756714,715.242859 1439.666748,715.242859 1421.198486,715.242859 
	C1421.198486,683.518860 1421.198486,651.810364 1421.198486,619.784851 
	C1439.361328,619.784851 1457.586792,619.784851 1475.995605,619.784851 
	C1475.995605,625.128967 1475.995605,630.268311 1475.995605,635.949341 
	C1464.678223,635.949341 1453.286621,635.949341 1441.540527,635.949341 
	C1441.540527,643.189880 1441.540527,649.900940 1441.540527,657.125610 
	C1452.170898,657.125610 1462.741455,657.125610 1473.572144,657.125610 
	C1473.572144,662.877136 1473.572144,668.125916 1473.572144,673.824890 
	C1462.965576,673.824890 1452.385620,673.824890 1441.176392,673.824890 
	C1441.176392,677.020752 1441.176392,679.790039 1441.176514,683.051514 
z"/>
<path fill="#2D2A25" opacity="1.000000" stroke="none" 
	d="
M574.090698,628.121826 
	C582.020874,619.590149 592.052429,617.216309 602.600403,618.189209 
	C611.556396,619.015381 620.355774,621.541016 630.168640,623.503540 
	C627.441406,630.165833 625.337769,635.304749 623.263916,640.370911 
	C616.912720,638.711609 610.881226,637.109375 604.831421,635.579102 
	C603.715637,635.296875 602.528198,635.225464 601.370178,635.194641 
	C594.554810,635.012939 590.262390,637.423340 588.927551,642.129211 
	C587.496338,647.174744 589.460266,650.932312 595.782654,654.484497 
	C603.452393,658.793762 611.542297,662.433411 618.882874,667.230957 
	C628.431580,673.471863 632.049988,684.136292 629.475647,695.251404 
	C626.678040,707.330139 618.114502,713.286011 606.808716,715.724426 
	C594.654907,718.345703 582.649780,717.092163 570.937317,712.890259 
	C568.296936,711.943054 566.864563,710.671326 567.069336,707.496521 
	C567.388916,702.542114 567.153931,697.551941 567.153931,692.811401 
	C575.106079,695.056580 582.814453,697.627625 590.713989,699.291138 
	C594.473938,700.082947 598.895081,699.987427 602.462402,698.726196 
	C605.295044,697.724670 608.660156,694.643188 609.262085,691.925476 
	C609.865295,689.202026 608.139893,684.960022 605.990356,682.867981 
	C602.875183,679.836060 598.486816,678.093628 594.594727,675.883423 
	C589.544128,673.015320 584.081970,670.725098 579.440918,667.310791 
	C566.619324,657.877869 564.431030,641.257751 574.090698,628.121826 
z"/>
<path fill="#302D28" opacity="1.000000" stroke="none" 
	d="
M1176.262207,715.547729 
	C1174.340698,715.458130 1172.886108,715.369141 1171.305176,715.272400 
	C1171.305176,683.297302 1171.305176,651.695557 1171.305176,619.773315 
	C1189.702026,619.773315 1207.942505,619.773315 1226.519531,619.773315 
	C1226.519531,625.083008 1226.519531,630.322266 1226.519531,636.008667 
	C1215.216064,636.008667 1203.797241,636.008667 1192.118042,636.008667 
	C1192.118042,644.381226 1192.118042,652.315430 1192.118042,660.573853 
	C1202.631226,660.573853 1213.054077,660.573853 1223.835449,660.573853 
	C1223.835449,666.432312 1223.835449,671.980713 1223.835449,677.853577 
	C1213.317383,677.853577 1202.872437,677.853577 1191.994385,677.853577 
	C1191.994385,690.405396 1191.994385,702.651978 1191.994385,715.548279 
	C1186.628296,715.548279 1181.678589,715.548279 1176.262207,715.547729 
z"/>
<path fill="#322F2B" opacity="1.000000" stroke="none" 
	d="
M800.000244,619.442139 
	C811.301208,619.442200 822.102173,619.442200 833.228027,619.442200 
	C833.228027,625.229492 833.228027,630.614929 833.228027,636.452026 
	C824.797424,636.452026 816.536560,636.452026 807.661255,636.452026 
	C807.661255,662.932312 807.661255,688.973694 807.661255,715.285767 
	C800.461426,715.285767 793.882568,715.285767 786.932495,715.285767 
	C786.932495,689.230835 786.932495,663.283142 786.932495,636.790039 
	C778.174866,636.790039 769.758362,636.790039 761.075012,636.790039 
	C761.075012,630.827942 761.075012,625.408630 761.075012,619.442078 
	C773.956787,619.442078 786.728455,619.442078 800.000244,619.442139 
z"/>
<path fill="#302D28" opacity="1.000000" stroke="none" 
	d="
M1013.882080,620.490906 
	C1013.992554,625.925049 1013.992554,630.909790 1013.992554,636.335449 
	C1005.379700,636.335449 996.963318,636.335449 988.139526,636.335449 
	C988.139526,662.847473 988.139526,688.922668 988.139526,715.252808 
	C980.995300,715.252808 974.262817,715.252808 967.184448,715.252808 
	C967.184448,689.046326 967.184448,663.135864 967.184448,636.660889 
	C958.480225,636.660889 950.103760,636.660889 941.440247,636.660889 
	C941.440247,630.723572 941.440247,625.351318 941.440247,619.453186 
	C943.257629,619.453186 944.883728,619.453186 946.509827,619.453125 
	C967.315369,619.452759 988.120972,619.439453 1008.926453,619.477600 
	C1010.541870,619.480530 1012.156555,619.845032 1013.882080,620.490906 
z"/>
<path fill="#2F2C28" opacity="1.000000" stroke="none" 
	d="
M699.963989,619.455444 
	C703.768127,619.455505 707.078491,619.455505 710.698853,619.455505 
	C710.698853,625.190674 710.698853,630.592468 710.698853,636.462952 
	C702.303711,636.462952 693.877563,636.462952 685.134521,636.462952 
	C685.134521,662.877075 685.134521,688.832947 685.134521,715.168701 
	C678.112000,715.168701 671.407654,715.168701 664.152710,715.168701 
	C664.152710,689.014282 664.152710,662.955322 664.152710,636.516113 
	C655.339355,636.516113 647.065369,636.516113 638.471130,636.516113 
	C638.471130,630.757019 638.471130,625.381165 638.471130,619.455383 
	C658.888123,619.455383 679.179199,619.455383 699.963989,619.455444 
z"/>
<path fill="#2E2B27" opacity="1.000000" stroke="none" 
	d="
M1699.190674,644.000610 
	C1699.190674,662.287109 1699.190674,680.073486 1699.190674,698.257568 
	C1712.235962,698.257568 1724.850464,698.257568 1737.826904,698.257568 
	C1737.826904,704.036560 1737.826904,709.433716 1737.826904,715.190796 
	C1718.385864,715.190796 1698.849365,715.190796 1679.059937,715.190796 
	C1679.059937,683.419495 1679.059937,651.675659 1679.059937,619.695923 
	C1685.683105,619.695923 1692.124023,619.695923 1699.190796,619.695923 
	C1699.190796,627.613098 1699.190796,635.556885 1699.190674,644.000610 
z"/>
<path fill="#312E29" opacity="1.000000" stroke="none" 
	d="
M418.448853,654.999756 
	C418.448914,643.036438 418.448914,631.573120 418.448914,619.781616 
	C425.424713,619.781616 432.010620,619.781616 438.900452,619.781616 
	C438.900452,651.436646 438.900452,683.172729 438.900452,715.233215 
	C432.321167,715.233215 425.758636,715.233215 418.448822,715.233215 
	C418.448822,695.324585 418.448822,675.412170 418.448853,654.999756 
z"/>
<path fill="#312E29" opacity="1.000000" stroke="none" 
	d="
M746.198364,695.999512 
	C746.198303,702.639343 746.198303,708.779358 746.198303,715.235596 
	C739.316650,715.235596 732.753845,715.235596 725.817383,715.235596 
	C725.817383,683.522949 725.817383,651.817383 725.817383,619.779602 
	C732.427673,619.779602 739.013489,619.779602 746.198486,619.779602 
	C746.198486,644.965759 746.198486,670.232788 746.198364,695.999512 
z"/>
<path fill="#2F2C28" opacity="1.000000" stroke="none" 
	d="
M480.150330,804.001221 
	C480.811401,799.451843 480.987213,795.205566 482.233063,791.300720 
	C485.004913,782.612915 490.779602,776.607239 500.057190,775.137329 
	C509.122406,773.700989 517.333557,775.497986 523.045715,783.565063 
	C527.548950,789.924805 527.939575,797.152466 527.349243,805.051514 
	C514.921692,805.051514 502.525726,805.051514 490.215698,805.051514 
	C488.307281,816.409424 496.068787,825.310852 507.640472,824.840149 
	C513.339050,824.608276 518.982849,823.030518 524.665833,822.059387 
	C526.035339,829.100769 526.135376,829.681946 518.789368,830.946350 
	C512.517395,832.025940 505.852844,832.468018 499.590363,831.580566 
	C489.791168,830.191833 482.707642,821.971252 481.013550,811.888306 
	C480.601013,809.432983 480.431732,806.936707 480.150330,804.001221 
M509.466583,798.149048 
	C512.254150,798.149048 515.041687,798.149048 517.793274,798.149048 
	C518.408020,788.348328 513.591370,782.299072 505.346588,782.013855 
	C496.424988,781.705261 490.125824,788.212952 490.101562,798.148987 
	C496.222595,798.148987 502.347809,798.148987 509.466583,798.149048 
z"/>
<path fill="#2F2C28" opacity="1.000000" stroke="none" 
	d="
M582.194580,823.807861 
	C582.194580,826.578857 582.194580,828.877930 582.194580,831.357300 
	C579.949646,831.357300 578.151672,831.357300 576.016296,831.357300 
	C575.435974,829.167114 574.854858,826.973938 573.978516,823.666443 
	C569.213501,829.729614 563.453186,832.315247 556.499146,832.575928 
	C543.177002,833.075317 535.201660,824.302551 537.963806,811.916565 
	C539.480774,805.114319 545.989929,800.364380 555.773071,799.029236 
	C558.734436,798.625122 561.719543,798.323425 564.703674,798.178467 
	C567.667664,798.034607 570.644043,798.147034 573.555969,798.147034 
	C574.881042,785.115845 569.103333,779.959167 556.759277,782.774536 
	C553.384521,783.544312 550.120300,784.798279 546.294556,785.989075 
	C545.523804,784.109619 544.679016,782.049500 543.699097,779.659912 
	C553.037781,774.876709 562.465088,773.310303 572.327332,776.230835 
	C578.662781,778.106934 582.049500,783.274841 582.148682,790.861389 
	C582.290161,801.684570 582.190918,812.510925 582.194580,823.807861 
M557.511902,825.159790 
	C569.515747,824.541138 575.165710,817.235596 573.232178,803.816284 
	C566.929688,804.595520 560.495239,804.934326 554.284058,806.293396 
	C548.608032,807.535400 546.188965,811.879700 546.827026,817.509155 
	C547.397949,822.545227 550.066345,824.625305 557.511902,825.159790 
z"/>
<path fill="#2F2C28" opacity="1.000000" stroke="none" 
	d="
M638.287964,821.570435 
	C636.757141,808.176941 640.788574,802.144348 653.619812,799.571655 
	C660.079346,798.276611 666.779419,798.181274 673.431152,797.537537 
	C675.556091,786.128662 669.603882,780.059082 658.122742,782.431152 
	C654.263855,783.228394 650.544189,784.699585 646.409973,785.970642 
	C645.599365,783.946899 644.766846,781.868652 643.877197,779.647644 
	C651.754944,775.421082 659.815552,774.059998 668.243347,775.156372 
	C676.762085,776.264648 681.746033,780.878052 682.075317,789.475037 
	C682.602051,803.229492 682.216248,817.018921 682.216248,831.167969 
	C680.328735,831.167969 678.424805,831.167969 676.148193,831.167969 
	C675.613647,829.206299 675.019958,827.027344 674.183228,823.956543 
	C667.054260,832.566650 658.098694,833.942810 648.379089,831.545593 
	C643.417664,830.321960 640.017517,826.923096 638.287964,821.570435 
M667.047180,822.803528 
	C673.787292,818.236572 674.401855,811.637268 673.360168,803.339661 
	C666.042542,804.657593 658.964172,805.417236 652.212463,807.330078 
	C647.728882,808.600281 645.951599,813.575378 647.045105,818.461365 
	C648.071838,823.048767 651.367554,825.211731 655.750916,825.040161 
	C659.301697,824.901123 662.815002,823.807068 667.047180,822.803528 
z"/>
<path fill="#302D28" opacity="1.000000" stroke="none" 
	d="
M434.045258,819.034180 
	C442.669281,825.210144 446.867859,825.573669 468.584961,822.149170 
	C468.584961,824.457764 468.584961,826.729248 468.584961,829.054688 
	C455.929169,836.192932 432.841980,832.714478 423.911713,822.260193 
	C412.740448,809.182861 412.176392,782.935425 422.765442,768.929871 
	C432.640839,755.868225 454.078979,752.035217 471.529419,760.557922 
	C470.383392,762.978455 469.230927,765.412720 468.315002,767.347229 
	C462.467377,766.181396 457.183533,764.515259 451.816986,764.182434 
	C439.727875,763.432800 429.772003,770.347412 426.697144,781.996948 
	C423.211670,795.202209 423.390442,808.083801 434.045258,819.034180 
z"/>
<path fill="#322F2B" opacity="1.000000" stroke="none" 
	d="
M625.107239,774.795227 
	C627.447449,774.920288 629.389038,775.045715 631.629272,775.190430 
	C631.274109,778.022827 630.972900,780.424866 630.698059,782.616760 
	C630.252441,782.875549 630.108826,783.032166 629.966003,783.031433 
	C613.755798,782.947327 608.042114,788.692871 608.020691,805.132324 
	C608.009460,813.754150 608.018677,822.375977 608.018677,831.274780 
	C605.133728,831.274780 602.568726,831.274780 599.442017,831.274780 
	C599.442017,821.973938 599.441956,812.878540 599.441956,803.783142 
	C599.441956,794.657349 599.442017,785.531555 599.442017,776.102051 
	C601.953735,776.102051 604.204407,776.102051 606.665649,776.102051 
	C606.952209,778.850830 607.234863,781.562195 607.616821,785.226135 
	C612.632080,779.310120 617.245667,774.530762 625.107239,774.795227 
z"/>
<path fill="#302D28" opacity="1.000000" stroke="none" 
	d="
M668.869507,760.869812 
	C664.677368,764.437439 662.272949,770.550842 654.686218,768.408691 
	C657.986816,763.003296 660.568604,757.178833 664.678894,752.783813 
	C666.467163,750.871765 671.394897,751.895691 674.896790,751.586182 
	C675.113586,751.991455 675.330383,752.396790 675.547180,752.802063 
	C673.392029,755.396362 671.236877,757.990662 668.869507,760.869812 
z"/>
<path fill="#FEFEFE" opacity="1.000000" stroke="none" 
	d="
M1093.693970,678.303833 
	C1090.172485,693.606628 1083.017456,699.737488 1069.402954,699.477661 
	C1058.669434,699.272827 1051.333618,694.095215 1048.241577,683.788574 
	C1044.965088,672.867249 1044.971436,661.746643 1048.292725,650.824524 
	C1051.513306,640.233154 1060.111206,634.585144 1071.505005,635.022339 
	C1082.513916,635.444824 1090.746826,641.549438 1092.650391,652.619385 
	C1094.067139,660.858154 1093.474609,669.442383 1093.693970,678.303833 
z"/>
<path fill="#FEFEFE" opacity="1.000000" stroke="none" 
	d="
M1378.973877,675.493286 
	C1374.722412,693.952148 1363.833618,700.552429 1342.105225,698.067017 
	C1342.105225,677.667419 1342.105225,657.235718 1342.105225,635.433167 
	C1349.601929,636.384888 1357.169922,636.417969 1364.151367,638.458374 
	C1373.656738,641.236572 1377.714966,649.354919 1378.856079,658.626282 
	C1379.520508,664.025024 1379.006470,669.568848 1378.973877,675.493286 
z"/>
<path fill="#FBFBFA" opacity="1.000000" stroke="none" 
	d="
M1541.080566,653.741211 
	C1538.470825,660.184021 1532.951172,661.149902 1527.453125,661.799438 
	C1524.183838,662.185730 1520.831787,661.870117 1517.174805,661.870117 
	C1517.174805,653.430725 1517.174805,645.059631 1517.174805,635.843872 
	C1522.402710,636.333923 1527.562012,636.346069 1532.504395,637.387695 
	C1540.583740,639.090454 1543.355957,644.638550 1541.080566,653.741211 
z"/>
<path fill="#FBFBFA" opacity="1.000000" stroke="none" 
	d="
M1628.123291,661.838989 
	C1629.522217,666.329346 1630.825928,670.429749 1632.293213,675.044800 
	C1624.173218,675.044800 1616.341553,675.044800 1607.982788,675.044800 
	C1611.796265,662.375854 1615.632812,649.629822 1619.927002,635.363586 
	C1622.899780,644.936035 1625.463867,653.192505 1628.123291,661.838989 
z"/>
<path fill="#FEFEFE" opacity="1.000000" stroke="none" 
	d="
M508.969818,798.149048 
	C502.347809,798.148987 496.222595,798.148987 490.101562,798.148987 
	C490.125824,788.212952 496.424988,781.705261 505.346588,782.013855 
	C513.591370,782.299072 518.408020,788.348328 517.793274,798.149048 
	C515.041687,798.149048 512.254150,798.149048 508.969818,798.149048 
z"/>
<path fill="#FBFBFA" opacity="1.000000" stroke="none" 
	d="
M557.076050,825.159180 
	C550.066345,824.625305 547.397949,822.545227 546.827026,817.509155 
	C546.188965,811.879700 548.608032,807.535400 554.284058,806.293396 
	C560.495239,804.934326 566.929688,804.595520 573.232178,803.816284 
	C575.165710,817.235596 569.515747,824.541138 557.076050,825.159180 
z"/>
<path fill="#FBFBFA" opacity="1.000000" stroke="none" 
	d="
M666.696045,822.970093 
	C662.815002,823.807068 659.301697,824.901123 655.750916,825.040161 
	C651.367554,825.211731 648.071838,823.048767 647.045105,818.461365 
	C645.951599,813.575378 647.728882,808.600281 652.212463,807.330078 
	C658.964172,805.417236 666.042542,804.657593 673.360168,803.339661 
	C674.401855,811.637268 673.787292,818.236572 666.696045,822.970093 
z"/>
</svg>